<svg width="512" height="512" viewBox="0 0 512 512" fill="none" xmlns="http://www.w3.org/2000/svg">
  <defs>
    <linearGradient id="bg" x1="40" y1="50" x2="472" y2="462" gradientUnits="userSpaceOnUse">
      <stop offset="0%" stop-color="#FF5AC8"/>
      <stop offset="50%" stop-color="#8A5BFF"/>
      <stop offset="100%" stop-color="#1AE6FF"/>
    </linearGradient>
    <filter id="glow" x="-10%" y="-10%" width="120%" height="120%" color-interpolation-filters="sRGB">
      <feGaussianBlur stdDeviation="12" result="blur"/>
      <feMerge>
        <feMergeNode in="blur"/>
        <feMergeNode in="SourceGraphic"/>
      </feMerge>
    </filter>
  </defs>
  <rect x="32" y="32" width="448" height="448" rx="112" fill="url(#bg)" filter="url(#glow)"/>
  <path d="M302 136v146.2c0 38.7-31.3 70-70 70-25.9 0-47-21.1-47-47s21.1-47 47-47c7.2 0 14.1 1.7 20.2 4.7V136h49.8Z" fill="#0A0A1A" fill-opacity="0.9"/>
  <path d="M340 118c-9.4 0-17 7.6-17 17v160c0 51.3-41.7 93-93 93-28.7 0-52-23.3-52-52s23.3-52 52-52c7.6 0 14.9 1.7 21.4 4.7V135c0-9.4 7.6-17 17-17h69.6Z" fill="#0A0A1A" fill-opacity="0.75"/>
  <circle cx="206" cy="306" r="32" fill="#F7FBFF" fill-opacity="0.94"/>
  <circle cx="254" cy="328" r="22" fill="#F7FBFF" fill-opacity="0.86"/>
  <path d="M360 188c-19.9-17.2-47-26-75.3-26-16.2 0-32.1 3-47.4 9-6.5 2.5-13.9-0.7-16.4-7.2-2.5-6.5 0.7-13.9 7.2-16.4 18.5-7.2 38.1-10.8 56.6-10.8 36.2 0 69.5 11.5 94.4 32.8 5.3 4.6 5.9 12.6 1.3 17.9-4.6 5.3-12.6 5.9-17.9 1.3l-2.5-2.2Z" fill="#F7FBFF" fill-opacity="0.9"/>
</svg>
