<svg width="512" height="512" viewBox="0 0 512 512" xmlns="http://www.w3.org/2000/svg">
  <defs>
    <linearGradient id="neon" x1="0%" y1="0%" x2="100%" y2="100%">
      <stop offset="0%" stop-color="#ff4ddb" />
      <stop offset="100%" stop-color="#f6ff80" />
    </linearGradient>
  </defs>
  <path fill="url(#neon)" d="M464 64h-32v256.05c0 52.8-43.2 95.95-96 95.95-52.8 0-96-43.15-96-95.95 0-52.8 43.2-95.95 96-95.95 8.7 0 17.1 1.2 25.1 3.4V128H160v256.05c0 52.8-43.2 95.95-96 95.95-52.8 0-96-43.15-96-95.95 0-52.8 43.2-95.95 96-95.95 8.7 0 17.1 1.2 25.1 3.4V64h-32c-17.7 0-32-14.3-32-32s14.3-32 32-32h416c17.7 0 32 14.3 32 32s-14.3 32-32 32z"/>
</svg>
